<?xml version="1.0" encoding="utf-8"?>
<!-- Generator: Adobe Illustrator 17.0.0, SVG Export Plug-In . SVG Version: 6.00 Build 0)  -->
<!DOCTYPE svg PUBLIC "-//W3C//DTD SVG 1.1//EN" "http://www.w3.org/Graphics/SVG/1.1/DTD/svg11.dtd">
<svg version="1.1" id="Capa_1" xmlns="http://www.w3.org/2000/svg" xmlns:xlink="http://www.w3.org/1999/xlink" x="0px" y="0px"
	 width="512px" height="512px" viewBox="0 0 512 512" enable-background="new 0 0 512 512" xml:space="preserve">
<g>
	<path fill="#FFFFFF" d="M332.786,102.466l-39.837-0.064c-44.755,0-73.678,29.674-73.678,75.602v34.857h-40.054
		c-3.461,0-6.264,2.806-6.264,6.267v50.504c0,3.461,2.806,6.264,6.264,6.264h40.054v127.439c0,3.461,2.803,6.264,6.264,6.264h52.259
		c3.461,0,6.264-2.806,6.264-6.264V275.896h46.832c3.461,0,6.264-2.803,6.264-6.264l0.019-50.504c0-1.662-0.662-3.253-1.834-4.429
		c-1.173-1.176-2.771-1.838-4.433-1.838h-46.848v-29.549c0-14.202,3.384-21.412,21.885-21.412l26.836-0.01
		c3.458,0,6.261-2.806,6.261-6.264v-46.896C339.04,105.275,336.241,102.472,332.786,102.466z"/>
</g>
</svg>
