<?xml version="1.0" encoding="utf-8"?>
<!-- Generator: Adobe Illustrator 17.0.0, SVG Export Plug-In . SVG Version: 6.00 Build 0)  -->
<!DOCTYPE svg PUBLIC "-//W3C//DTD SVG 1.1//EN" "http://www.w3.org/Graphics/SVG/1.1/DTD/svg11.dtd">
<svg version="1.1" id="Capa_1" xmlns="http://www.w3.org/2000/svg" xmlns:xlink="http://www.w3.org/1999/xlink" x="0px" y="0px"
	 width="512px" height="512px" viewBox="0 0 512 512" enable-background="new 0 0 512 512" xml:space="preserve">
<g>
	<g>
		<g>
			<path fill="#FFFFFF" d="M338.158,242.902h-110.02v36.674h67.123c-10.013,31.883-39.794,55.01-74.983,55.01
				c-43.403,0-78.585-35.185-78.585-78.586c0-43.403,35.184-78.585,78.585-78.585c21.856,0,41.624,8.924,55.869,23.325l26.62-28.935
				c-21.26-20.833-50.372-33.682-82.49-33.682C155.176,138.121,102.4,190.897,102.4,256s52.776,117.88,117.879,117.88
				c57.028,0,106.956-40.5,117.88-94.303L338.158,242.902L338.158,242.902L338.158,242.902z"/>
			<polygon fill="#FFFFFF" points="409.6,242.839 387.096,242.839 387.096,220.335 367.806,220.335 367.806,242.839
				345.302,242.839 345.302,262.128 367.806,262.128 367.806,284.632 387.096,284.632 387.096,262.128 409.6,262.128 			"/>
		</g>
	</g>
</g>
</svg>
