<?xml version="1.0" encoding="utf-8"?>
<!-- Generator: Adobe Illustrator 17.0.0, SVG Export Plug-In . SVG Version: 6.00 Build 0)  -->
<!DOCTYPE svg PUBLIC "-//W3C//DTD SVG 1.1//EN" "http://www.w3.org/Graphics/SVG/1.1/DTD/svg11.dtd">
<svg version="1.1" id="Capa_1" xmlns="http://www.w3.org/2000/svg" xmlns:xlink="http://www.w3.org/1999/xlink" x="0px" y="0px"
	 width="512px" height="512px" viewBox="0 0 512 512" enable-background="new 0 0 512 512" xml:space="preserve">
<g>
	<path fill="#FFFFFF" d="M153.246,117.76h205.506c19.516,0,35.484,14.449,35.484,35.484v205.511
		c0,21.035-15.968,35.484-35.484,35.484H153.246c-19.522,0-35.487-14.449-35.487-35.484V153.244
		C117.758,132.209,133.724,117.76,153.246,117.76L153.246,117.76z M319.162,148.478c-6.847,0-12.442,5.598-12.442,12.448v29.792
		c0,6.847,5.595,12.448,12.442,12.448h31.249c6.847,0,12.448-5.601,12.448-12.448v-29.792c0-6.85-5.601-12.448-12.448-12.448
		L319.162,148.478L319.162,148.478z M362.99,234.682h-24.334c2.302,7.517,3.548,15.48,3.548,23.717
		c0,45.988-38.482,83.266-85.943,83.266c-47.458,0-85.935-37.278-85.935-83.266c0-8.244,1.243-16.203,3.548-23.717h-25.393v116.789
		c0,6.044,4.945,10.992,10.992,10.992h192.53c6.047,0,10.992-4.945,10.992-10.992V234.682H362.99z M256.258,201.597
		c-30.664,0-55.526,24.087-55.526,53.803s24.862,53.803,55.526,53.803c30.667,0,55.532-24.087,55.532-53.803
		S286.928,201.597,256.258,201.597z"/>
</g>
</svg>
