<?xml version="1.0" encoding="utf-8"?>
<!-- Generator: Adobe Illustrator 17.0.0, SVG Export Plug-In . SVG Version: 6.00 Build 0)  -->
<!DOCTYPE svg PUBLIC "-//W3C//DTD SVG 1.1//EN" "http://www.w3.org/Graphics/SVG/1.1/DTD/svg11.dtd">
<svg version="1.1" id="Capa_1" xmlns="http://www.w3.org/2000/svg" xmlns:xlink="http://www.w3.org/1999/xlink" x="0px" y="0px"
	 width="512px" height="512px" viewBox="0 0 512 512" enable-background="new 0 0 512 512" xml:space="preserve">
<g>
	<path id="LinkedIn" fill="#FFFFFF" d="M384,283.667v94.645h-54.869v-88.306c0-22.183-7.936-37.322-27.797-37.322
		c-15.161,0-24.184,10.203-28.153,20.072c-1.447,3.528-1.82,8.439-1.82,13.378v92.178h-54.888c0,0,0.739-149.562,0-165.057h54.882
		v23.396c-0.111,0.175-0.256,0.364-0.361,0.533h0.361v-0.533c7.292-11.231,20.314-27.274,49.461-27.274
		C356.929,209.377,384,232.968,384,283.667z M159.059,133.689c-18.777,0-31.059,12.316-31.059,28.512
		c0,15.843,11.926,28.533,30.33,28.533h0.367c19.141,0,31.044-12.688,31.044-28.533C189.38,146.005,177.837,133.689,159.059,133.689
		z M131.26,378.312h54.867V213.255H131.26V378.312z"/>
</g>
</svg>
