<?xml version="1.0" encoding="utf-8"?>
<!-- Generator: Adobe Illustrator 17.0.0, SVG Export Plug-In . SVG Version: 6.00 Build 0)  -->
<!DOCTYPE svg PUBLIC "-//W3C//DTD SVG 1.1//EN" "http://www.w3.org/Graphics/SVG/1.1/DTD/svg11.dtd">
<svg version="1.1" id="Capa_1" xmlns="http://www.w3.org/2000/svg" xmlns:xlink="http://www.w3.org/1999/xlink" x="0px" y="0px"
	 width="512px" height="512px" viewBox="0 0 512 512" enable-background="new 0 0 512 512" xml:space="preserve">
<g>
	<g>
		<path fill="#FFFFFF" d="M409.6,160.757c-11.307,5.01-23.439,8.408-36.185,9.925c13.015-7.794,22.978-20.156,27.7-34.842
			c-12.209,7.218-25.685,12.459-40.044,15.3c-11.498-12.266-27.854-19.907-45.995-19.907c-34.803,0-63.022,28.219-63.022,63.003
			c0,4.933,0.557,9.752,1.632,14.359c-52.368-2.63-98.803-27.72-129.882-65.844c-5.433,9.291-8.523,20.118-8.523,31.674
			c0,21.865,11.134,41.157,28.027,52.444c-10.328-0.345-20.041-3.186-28.545-7.909v0.787c0,30.522,21.73,55.996,50.544,61.793
			c-5.279,1.421-10.846,2.208-16.605,2.208c-4.069,0-8.005-0.403-11.863-1.171c8.024,25.051,31.29,43.269,58.856,43.768
			c-21.558,16.893-48.74,26.933-78.264,26.933c-5.087,0-10.097-0.307-15.031-0.864c27.892,17.91,61.006,28.353,96.596,28.353
			c115.927,0,179.294-96.021,179.294-179.294l-0.211-8.158C390.461,184.484,401.173,173.388,409.6,160.757z"/>
	</g>
</g>
</svg>
